<mxfile host="Electron" modified="2024-11-25T14:45:54.779Z" agent="Mozilla/5.0 (Windows NT 10.0; Win64; x64) AppleWebKit/537.36 (KHTML, like Gecko) draw.io/21.1.2 Chrome/106.0.5249.199 Electron/21.4.3 Safari/537.36" etag="nB5zIfOOWShI_l3d-J1r" version="21.1.2" type="device">
  <diagram name="Page-1" id="Cb7sVd-DWS7uKCs9v_d-">
    <mxGraphModel dx="787" dy="631" grid="1" gridSize="10" guides="1" tooltips="1" connect="1" arrows="1" fold="1" page="1" pageScale="1" pageWidth="1700" pageHeight="1100" math="0" shadow="0">
      <root>
        <mxCell id="0" />
        <mxCell id="1" parent="0" />
        <mxCell id="XT_mKQWgjgeXokwGlIwM-13" style="edgeStyle=orthogonalEdgeStyle;rounded=0;orthogonalLoop=1;jettySize=auto;html=1;entryX=0.5;entryY=0;entryDx=0;entryDy=0;" edge="1" parent="1" source="XT_mKQWgjgeXokwGlIwM-1" target="XT_mKQWgjgeXokwGlIwM-3">
          <mxGeometry relative="1" as="geometry" />
        </mxCell>
        <mxCell id="XT_mKQWgjgeXokwGlIwM-1" value="Start" style="strokeWidth=2;html=1;shape=mxgraph.flowchart.terminator;whiteSpace=wrap;" vertex="1" parent="1">
          <mxGeometry x="450" y="90" width="100" height="60" as="geometry" />
        </mxCell>
        <mxCell id="XT_mKQWgjgeXokwGlIwM-2" value="Stop" style="strokeWidth=2;html=1;shape=mxgraph.flowchart.terminator;whiteSpace=wrap;" vertex="1" parent="1">
          <mxGeometry x="450" y="610" width="100" height="60" as="geometry" />
        </mxCell>
        <mxCell id="XT_mKQWgjgeXokwGlIwM-12" style="edgeStyle=orthogonalEdgeStyle;rounded=0;orthogonalLoop=1;jettySize=auto;html=1;entryX=0.5;entryY=0;entryDx=0;entryDy=0;" edge="1" parent="1" source="XT_mKQWgjgeXokwGlIwM-3" target="XT_mKQWgjgeXokwGlIwM-4">
          <mxGeometry relative="1" as="geometry" />
        </mxCell>
        <mxCell id="XT_mKQWgjgeXokwGlIwM-3" value="a = 10" style="rounded=0;whiteSpace=wrap;html=1;" vertex="1" parent="1">
          <mxGeometry x="440" y="190" width="120" height="40" as="geometry" />
        </mxCell>
        <mxCell id="XT_mKQWgjgeXokwGlIwM-11" style="edgeStyle=orthogonalEdgeStyle;rounded=0;orthogonalLoop=1;jettySize=auto;html=1;entryX=0.5;entryY=0;entryDx=0;entryDy=0;" edge="1" parent="1" source="XT_mKQWgjgeXokwGlIwM-4" target="XT_mKQWgjgeXokwGlIwM-5">
          <mxGeometry relative="1" as="geometry" />
        </mxCell>
        <mxCell id="XT_mKQWgjgeXokwGlIwM-4" value="b = 20" style="rounded=0;whiteSpace=wrap;html=1;" vertex="1" parent="1">
          <mxGeometry x="440" y="270" width="120" height="40" as="geometry" />
        </mxCell>
        <mxCell id="XT_mKQWgjgeXokwGlIwM-10" style="edgeStyle=orthogonalEdgeStyle;rounded=0;orthogonalLoop=1;jettySize=auto;html=1;entryX=0.5;entryY=0;entryDx=0;entryDy=0;" edge="1" parent="1" source="XT_mKQWgjgeXokwGlIwM-5" target="XT_mKQWgjgeXokwGlIwM-6">
          <mxGeometry relative="1" as="geometry" />
        </mxCell>
        <mxCell id="XT_mKQWgjgeXokwGlIwM-5" value="c[ ] = &quot;Haha&quot;" style="rounded=0;whiteSpace=wrap;html=1;" vertex="1" parent="1">
          <mxGeometry x="440" y="350" width="120" height="40" as="geometry" />
        </mxCell>
        <mxCell id="XT_mKQWgjgeXokwGlIwM-9" style="edgeStyle=orthogonalEdgeStyle;rounded=0;orthogonalLoop=1;jettySize=auto;html=1;entryX=0.5;entryY=0;entryDx=0;entryDy=0;" edge="1" parent="1" source="XT_mKQWgjgeXokwGlIwM-6" target="XT_mKQWgjgeXokwGlIwM-7">
          <mxGeometry relative="1" as="geometry" />
        </mxCell>
        <mxCell id="XT_mKQWgjgeXokwGlIwM-6" value="d = &#39;a&#39;" style="rounded=0;whiteSpace=wrap;html=1;" vertex="1" parent="1">
          <mxGeometry x="440" y="430" width="120" height="40" as="geometry" />
        </mxCell>
        <mxCell id="XT_mKQWgjgeXokwGlIwM-8" style="edgeStyle=orthogonalEdgeStyle;rounded=0;orthogonalLoop=1;jettySize=auto;html=1;entryX=0.5;entryY=0;entryDx=0;entryDy=0;entryPerimeter=0;" edge="1" parent="1" source="XT_mKQWgjgeXokwGlIwM-7" target="XT_mKQWgjgeXokwGlIwM-2">
          <mxGeometry relative="1" as="geometry" />
        </mxCell>
        <mxCell id="XT_mKQWgjgeXokwGlIwM-7" value="OUTPUT a, b, c, d" style="shape=parallelogram;perimeter=parallelogramPerimeter;whiteSpace=wrap;html=1;fixedSize=1;" vertex="1" parent="1">
          <mxGeometry x="430" y="510" width="140" height="60" as="geometry" />
        </mxCell>
      </root>
    </mxGraphModel>
  </diagram>
</mxfile>
